<?xml version="1.0" standalone="no"?>
<!DOCTYPE svg PUBLIC "-//W3C//DTD SVG 20010904//EN"
 "http://www.w3.org/TR/2001/REC-SVG-20010904/DTD/svg10.dtd">
<svg version="1.0" xmlns="http://www.w3.org/2000/svg"
 width="500.000000pt" height="500.000000pt" viewBox="0 0 500.000000 500.000000"
 preserveAspectRatio="xMidYMid meet">

<g transform="translate(0.000000,500.000000) scale(0.100000,-0.100000)"
fill="#000000" stroke="none">
<path d="M2716 3770 c-25 -19 -33 -30 -23 -30 9 0 31 13 49 30 43 38 25 38
-26 0z"/>
<path d="M3048 3679 c-70 -55 -73 -58 -65 -65 5 -6 137 92 137 102 0 12 -24 0
-72 -37z"/>
<path d="M1753 3348 c-66 -57 -77 -89 -12 -38 32 26 88 90 77 90 -2 0 -31 -24
-65 -52z"/>
<path d="M3341 3232 c-19 -15 -32 -34 -30 -40 3 -8 20 3 44 28 45 46 36 54
-14 12z"/>
<path d="M2358 3193 c12 -2 32 -2 45 0 12 2 2 4 -23 4 -25 0 -35 -2 -22 -4z"/>
<path d="M2628 3193 c12 -2 30 -2 40 0 9 3 -1 5 -23 4 -22 0 -30 -2 -17 -4z"/>
<path d="M2730 3183 c8 -3 24 -13 35 -22 20 -16 20 -16 1 7 -11 12 -26 22 -35
21 -14 0 -14 -1 -1 -6z"/>
<path d="M2248 3158 c-8 -13 -25 -43 -38 -68 -21 -41 -23 -43 -31 -22 -9 23
-19 26 -57 16 -40 -11 -21 -37 38 -54 54 -16 75 -35 131 -120 14 -22 26 -26
95 -31 l79 -6 -76 -1 c-85 -2 -94 3 -144 82 -16 26 -40 49 -52 52 -34 9 -86
-26 -100 -66 -13 -37 -15 -180 -5 -270 l7 -55 48 -3 c45 -3 48 -2 53 26 7 36
49 51 150 54 46 1 26 3 -57 8 -102 5 -133 10 -155 26 l-29 19 45 6 45 6 -42 1
c-31 2 -43 6 -43 17 0 10 10 15 28 15 21 0 24 -2 12 -10 -12 -8 -9 -10 13 -10
19 0 26 4 21 12 -5 8 -2 9 12 4 23 -9 620 -10 634 -1 5 3 10 1 10 -4 0 -6 12
-11 28 -11 21 0 24 2 12 10 -12 8 -11 10 8 10 18 0 22 -6 22 -30 0 -43 -27
-53 -170 -60 -82 -5 -102 -7 -57 -8 95 -3 145 -20 149 -52 3 -22 8 -25 50 -28
46 -3 47 -3 52 30 13 85 16 169 7 238 -8 65 -14 79 -41 102 -46 42 -74 37
-113 -19 -62 -90 -66 -93 -154 -91 l-78 1 76 6 c42 3 83 12 91 18 8 7 30 35
49 63 30 45 41 53 92 67 61 17 78 45 35 57 -38 10 -48 7 -48 -14 0 -32 -16
-23 -35 20 -10 23 -23 43 -27 47 -5 3 0 -13 11 -36 12 -22 21 -43 21 -46 0 -3
-140 -5 -311 -5 l-311 0 36 65 c35 64 42 86 14 43z m-37 -188 c40 -22 12 -100
-35 -100 -31 0 -66 28 -66 52 0 47 54 73 101 48z m695 -15 c13 -21 15 -31 6
-50 -22 -49 -105 -42 -118 10 -15 59 78 92 112 40z m-368 -26 c4 -19 -27 -34
-41 -20 -14 14 0 43 20 39 10 -2 19 -10 21 -19z"/>
<path d="M3382 2980 c-13 -11 -22 -24 -20 -30 2 -6 16 3 33 20 32 33 23 40
-13 10z"/>
<path d="M2848 2753 c12 -2 30 -2 40 0 9 3 -1 5 -23 4 -22 0 -30 -2 -17 -4z"/>
<path d="M2243 2743 c15 -2 39 -2 55 0 15 2 2 4 -28 4 -30 0 -43 -2 -27 -4z"/>
<path d="M2733 2743 c15 -2 37 -2 50 0 12 2 0 4 -28 4 -27 0 -38 -2 -22 -4z"/>
<path d="M2438 2733 c46 -2 118 -2 160 0 42 1 5 3 -83 3 -88 0 -123 -2 -77 -3z"/>
<path d="M2463 2683 c26 -2 68 -2 95 0 26 2 4 3 -48 3 -52 0 -74 -1 -47 -3z"/>
<path d="M1660 2625 c-27 -29 -13 -33 21 -7 13 11 18 21 12 25 -6 4 -21 -5
-33 -18z"/>
<path d="M1870 2180 c-41 -38 -72 -71 -69 -74 7 -7 159 123 159 135 0 18 -17
7 -90 -61z"/>
<path d="M2195 2060 c-37 -39 -20 -39 25 0 23 19 29 29 19 30 -8 0 -28 -13
-44 -30z"/>
<path d="M1502 1770 c-33 -15 -47 -29 -62 -62 -24 -54 -25 -82 -1 -134 21 -45
83 -84 136 -84 52 0 112 37 134 84 26 52 26 79 1 134 -15 33 -29 47 -62 62
-54 25 -92 25 -146 0z m141 -22 c28 -15 57 -69 57 -108 0 -40 -29 -94 -60
-110 -12 -7 -41 -12 -65 -12 -54 0 -81 14 -105 55 -69 112 55 237 173 175z"/>
<path d="M3375 1776 c-81 -35 -112 -135 -68 -219 15 -31 82 -66 123 -67 42 0
100 20 100 35 0 11 -6 12 -26 5 -76 -29 -163 2 -184 65 -24 74 12 147 81 165
39 11 52 9 112 -15 12 -5 17 -2 17 8 0 33 -100 47 -155 23z"/>
<path d="M740 1640 c0 -82 4 -140 9 -140 6 0 11 24 13 53 l3 52 45 3 c92 5
130 29 130 81 0 67 -35 91 -135 91 l-65 0 0 -140z m150 102 c27 -22 30 -67 6
-90 -11 -11 -34 -17 -74 -17 l-57 0 -3 49 c-2 27 -1 55 2 62 8 21 99 18 126
-4z"/>
<path d="M1070 1640 c0 -82 4 -140 10 -140 5 0 10 30 12 68 l3 67 88 3 87 3 0
-71 c0 -56 3 -70 15 -70 13 0 15 22 15 140 0 118 -2 140 -15 140 -12 0 -15
-13 -15 -60 l0 -60 -90 0 -90 0 0 60 c0 33 -4 60 -10 60 -6 0 -10 -53 -10
-140z"/>
<path d="M1850 1640 l0 -140 90 0 c53 0 90 4 90 10 0 6 -32 10 -75 10 l-76 0
3 58 3 57 63 3 c82 4 80 22 -3 22 l-65 0 0 50 0 50 75 0 c43 0 75 4 75 10 0 6
-37 10 -90 10 l-90 0 0 -140z"/>
<path d="M2160 1640 c0 -123 2 -140 16 -140 15 0 16 13 12 125 -3 69 -3 123 1
121 3 -2 49 -58 101 -125 55 -70 102 -120 113 -121 15 0 17 13 17 140 0 87 -4
140 -10 140 -6 0 -10 -47 -10 -120 0 -66 -3 -120 -7 -120 -5 1 -51 55 -103
120 -56 70 -102 120 -112 120 -16 0 -18 -13 -18 -140z"/>
<path d="M2560 1640 c0 -87 4 -140 10 -140 6 0 10 53 10 140 0 87 -4 140 -10
140 -6 0 -10 -53 -10 -140z"/>
<path d="M2764 1721 c25 -33 46 -65 46 -71 0 -9 -46 -77 -93 -137 -7 -9 -5
-13 7 -13 9 0 31 21 49 46 68 99 58 97 113 21 29 -39 56 -67 67 -67 13 0 5 17
-39 74 l-56 75 39 53 c54 73 57 78 40 78 -8 0 -32 -25 -52 -55 -21 -30 -42
-55 -46 -55 -4 0 -25 25 -46 55 -22 32 -46 55 -56 55 -14 0 -9 -12 27 -59z"/>
<path d="M3702 1640 c-44 -103 -57 -140 -45 -138 8 2 23 23 33 48 l18 45 71 3
72 3 21 -51 c11 -27 27 -50 34 -50 16 0 17 -5 -52 155 -71 166 -74 165 -152
-15z m111 48 c15 -34 25 -63 23 -65 -2 -2 -29 -3 -59 -1 l-55 3 25 63 c14 34
28 62 32 62 4 0 20 -28 34 -62z"/>
<path d="M4040 1640 c0 -118 2 -140 15 -140 12 0 15 14 15 65 l0 65 39 0 c37
0 41 -3 81 -65 23 -36 49 -65 57 -65 16 0 8 19 -39 87 l-29 43 24 11 c25 11
47 47 47 75 0 8 -11 26 -25 39 -22 22 -32 25 -105 25 l-80 0 0 -140z m158 104
c12 -8 22 -26 22 -39 0 -35 -36 -55 -97 -55 l-53 0 0 55 0 55 53 0 c31 0 61
-6 75 -16z"/>
</g>
</svg>
